Coordinates
version=1
nRows=14
nColumns=24
inDegrees=yes

Units are S.I. units (second, meters, Newtons, ...)
Angles are in degrees.

endheader
time	pelvis_tilt	pelvis_list	pelvis_rotation	pelvis_tx	pelvis_ty	pelvis_tz	hip_flexion_r	hip_adduction_r	hip_rotation_r	knee_angle_r	ankle_angle_r	subtalar_angle_r	mtp_angle_r	hip_flexion_l	hip_adduction_l	hip_rotation_l	knee_angle_l	ankle_angle_l	subtalar_angle_l	mtp_angle_l	lumbar_extension	lumbar_bending	lumbar_rotation
      3.21500000	    -10.69296089	      4.29269419	     -6.06973810	     -1.15189147	     -0.05209494	      0.73599050	     -9.63385065	     -5.94733457	      7.41610521	    -12.04735602	      9.62046218	      7.33546752	     16.08527640	     42.13711795	     -1.58189671	     -6.66308967	    -24.72185468	      4.46643712	      7.31271377	     -3.41036454	      6.32917553	     -1.21097497	      9.41219637
      3.22000000	    -10.77664877	      4.59005408	     -6.28392867	     -1.14300579	     -0.05335577	      0.73611662	     -9.44469870	     -6.34176144	      7.31047801	    -12.98301158	      8.92036349	      7.68284352	     17.95256300	     42.04036376	     -1.32576060	     -6.58338364	    -24.84616819	      3.12705420	      7.10335880	      0.21274448	      6.53265822	     -1.67706000	      9.58294286
      3.22500000	    -10.97083459	      4.92042812	     -6.49060006	     -1.13401998	     -0.05474471	      0.73616100	     -9.01974962	     -6.76104405	      7.18294710	    -14.20149905	      8.54937300	      8.39126848	     18.22115512	     42.12276420	     -1.03077865	     -6.47245565	    -25.27256445	      2.59486719	      6.98749076	      1.09262678	      6.87987215	     -2.15478733	      9.76504725
      3.23000000	    -11.08864332	      5.27757308	     -6.57189111	     -1.12500321	     -0.05595434	      0.73620525	     -8.69007451	     -7.17669396	      7.12075980	    -15.35513128	      7.70420313	      8.58180682	     19.64008613	     42.13169847	     -0.61987635	     -6.26554275	    -25.66050019	      1.21378431	      6.55500723	      4.02012846	      7.13950763	     -2.71763893	      9.79191297
      3.23500000	    -11.33868639	      5.66285284	     -6.66193255	     -1.11602487	     -0.05730031	      0.73612282	     -8.06051896	     -7.63060458	      6.98939366	    -16.80969893	      7.10026743	      9.28740101	     20.14563812	     42.36703319	     -0.18056228	     -5.96173749	    -26.33008379	      0.55058326	      6.19710730	      4.63594234	      7.54971484	     -3.27569162	      9.87065223
      3.24000000	    -11.47178311	      6.04472727	     -6.66551436	     -1.10718029	     -0.05841443	      0.73593189	     -7.51013695	     -8.08017487	      6.81116688	    -18.27357970	      6.05952381	      9.70028936	     21.81343436	     42.51928633	      0.36179013	     -5.48477544	    -27.02241319	     -0.48306871	      5.46413440	      6.02360830	      7.79686701	     -3.86337073	      9.80891829
      3.24500000	    -11.74250334	      6.51714035	     -6.64724231	     -1.09825153	     -0.05964110	      0.73579283	     -6.69253354	     -8.60368620	      6.64038357	    -19.96857244	      5.12037208	     10.32287856	     22.57316167	     42.88947215	      0.97063633	     -5.03378324	    -27.89439688	     -1.05392268	      4.83260581	      6.20668734	      8.22667646	     -4.54248232	      9.78489412
      3.25000000	    -11.89446624	      6.95424208	     -6.54419390	     -1.08948420	     -0.06065116	      0.73546581	     -5.95251153	     -9.10806045	      6.37614127	    -21.65970699	      3.69575719	     10.74720097	     24.70848624	     43.19290674	      1.66634220	     -4.42692906	    -28.85511060	     -1.47547545	      3.92609922	      5.84352990	      8.48104234	     -5.20774933	      9.62526605
      3.25500000	    -12.07585770	      7.44744001	     -6.40070385	     -1.08067362	     -0.06166072	      0.73511611	     -5.09972103	     -9.66788182	      6.10170312	    -23.46216956	      2.10377420	     11.17126146	     26.84004444	     43.57084829	      2.44695344	     -3.83592226	    -29.93024068	     -1.35215817	      3.01513460	      4.01375727	      8.77854466	     -5.93971050	      9.44715553
      3.26000000	    -12.22354475	      8.00183530	     -6.25367696	     -1.07176274	     -0.06257008	      0.73476821	     -4.22204571	    -10.29949490	      5.87779607	    -25.30972984	      0.26373091	     11.57028538	     29.09850764	     43.91619540	      3.30856847	     -3.30184121	    -31.06909041	     -0.52049645	      2.10446989	      0.11244606	      9.06630531	     -6.73723925	      9.29845267
      3.26500000	    -12.31780787	      8.51062172	     -6.08413038	     -1.06297003	     -0.06340129	      0.73431339	     -3.33352349	    -10.89364216	      5.67531356	    -27.21718994	     -1.80351378	     12.01044990	     31.44343479	     44.20314899	      4.17928917	     -2.75848678	    -32.21147594	      0.68847552	      1.04327525	     -5.12376894	      9.26382214	     -7.48678881	      9.12860806
      3.27000000	    -12.37840067	      9.05155482	     -5.90134620	     -1.05417237	     -0.06414603	      0.73383902	     -2.42444400	    -11.52955791	      5.48352714	    -29.14278360	     -4.15548964	     12.40891073	     34.00407151	     44.40770204	      5.09464965	     -2.31024713	    -33.26737566	      2.29325552	     -0.07189309	    -11.82753568	      9.42809768	     -8.26662698	      8.92190129
      3.27500000	    -12.43285975	      9.57725890	     -5.65577923	     -1.04541803	     -0.06488304	      0.73324044	     -1.48361063	    -12.13985749	      5.34233162	    -31.16327520	     -6.45190669	     13.05677332	     35.29687950	     44.56733464	      6.06586360	     -1.79945743	    -34.29483046	      4.94353105	     -1.11370344	    -22.01037302	      9.56721704	     -9.03220693	      8.64721366
      3.28000000	    -12.48651130	     10.02339605	     -5.37872300	     -1.03676327	     -0.06551512	      0.73271506	     -0.53258385	    -12.65345223	      5.19179466	    -33.07568495	     -9.24183483	     13.41031821	     37.68223814	     44.62032172	      6.95219990	     -1.30168513	    -35.06244140	      6.89488598	     -2.20794302	    -29.90373251	      9.67395684	     -9.73023951	      8.33159436
